<svg xmlns="http://www.w3.org/2000/svg" viewBox="0 0 1200 630" width="1200" height="630"><defs><linearGradient id="bg" x1="0" y1="0" x2="1" y2="1"><stop offset="0%" stop-color="#050310"/><stop offset="100%" stop-color="#130e2e"/></linearGradient><linearGradient id="gl" x1="0" y1="0" x2="1" y2="0"><stop offset="0%" stop-color="#F5C842" stop-opacity="0.16"/><stop offset="100%" stop-color="#F5C842" stop-opacity="0"/></linearGradient><linearGradient id="nm" x1="0" y1="0" x2="0" y2="1"><stop offset="0%" stop-color="#fffae0"/><stop offset="35%" stop-color="#F5C842"/><stop offset="70%" stop-color="#b8860b"/><stop offset="100%" stop-color="#3a2000"/></linearGradient><linearGradient id="bt" x1="0" y1="0" x2="0" y2="1"><stop offset="0%" stop-color="#ffe066"/><stop offset="50%" stop-color="#d4960a"/><stop offset="100%" stop-color="#8a5c00"/></linearGradient><linearGradient id="sh" x1="0" y1="0" x2="0" y2="1"><stop offset="0%" stop-color="#F5C842" stop-opacity="0.28"/><stop offset="50%" stop-color="#F5C842" stop-opacity="0.06"/><stop offset="100%" stop-color="#F5C842" stop-opacity="0.18"/></linearGradient></defs><rect width="1200" height="630" fill="url(#bg)"/><rect width="700" height="630" fill="url(#gl)"/><rect x="14" y="14" width="1172" height="602" rx="3" fill="none" stroke="#F5C842" stroke-width="0.6" opacity="0.5"/><rect x="19" y="19" width="1162" height="592" rx="2" fill="none" stroke="#F5C842" stroke-width="2" opacity="0.12"/><rect x="19" y="19" width="54" height="5" fill="#F5C842" rx="2"/><rect x="19" y="19" width="5" height="54" fill="#F5C842" rx="2"/><rect x="1127" y="19" width="54" height="5" fill="#F5C842" rx="2"/><rect x="1176" y="19" width="5" height="54" fill="#F5C842" rx="2"/><rect x="19" y="606" width="54" height="5" fill="#F5C842" rx="2"/><rect x="19" y="557" width="5" height="54" fill="#F5C842" rx="2"/><rect x="1127" y="606" width="54" height="5" fill="#F5C842" rx="2"/><rect x="1176" y="557" width="5" height="54" fill="#F5C842" rx="2"/><circle cx="46" cy="46" r="3" fill="#F5C842" opacity="0.45"/><circle cx="1154" cy="46" r="3" fill="#F5C842" opacity="0.45"/><circle cx="46" cy="584" r="3" fill="#F5C842" opacity="0.45"/><circle cx="1154" cy="584" r="3" fill="#F5C842" opacity="0.45"/><text x="42" y="57" font-family="Arial,sans-serif" font-size="15" fill="#F5C842" opacity="0.38" letter-spacing="2">privatepaycheck.com</text><text x="43" y="143" font-family="Arial Black,sans-serif" font-size="68" font-weight="900" fill="#000" opacity="0.52">PrivatePaycheck</text><text x="40" y="140" font-family="Arial Black,sans-serif" font-size="68" font-weight="900" fill="#ffffff">Private<tspan fill="#F5C842">Paycheck</tspan></text><text x="41" y="172" font-family="Arial,sans-serif" font-size="17" fill="#F5C842" letter-spacing="3.5" font-weight="700">FREE PAYCHECK CALCULATOR 2026</text><line x1="40" y1="192" x2="635" y2="192" stroke="#F5C842" stroke-width="1" opacity="0.18"/><line x1="40" y1="193" x2="635" y2="193" stroke="#fffae0" stroke-width="0.4" opacity="0.08"/><circle cx="64" cy="232" r="19" fill="#15803d"/><circle cx="64" cy="232" r="19" fill="none" stroke="#4ade80" stroke-width="1" opacity="0.45"/><path d="M53,232 L61,241 L75,223" stroke="#fff" stroke-width="2.8" fill="none" stroke-linecap="round" stroke-linejoin="round"/><text x="94" y="240" font-family="Arial,sans-serif" font-size="25" fill="#ffffff" font-weight="700">W-2 Salary - Hourly - Bonus Calculator</text><circle cx="64" cy="293" r="19" fill="#15803d"/><circle cx="64" cy="293" r="19" fill="none" stroke="#4ade80" stroke-width="1" opacity="0.45"/><path d="M53,293 L61,302 L75,284" stroke="#fff" stroke-width="2.8" fill="none" stroke-linecap="round" stroke-linejoin="round"/><text x="94" y="301" font-family="Arial,sans-serif" font-size="25" fill="#ffffff" font-weight="700">All 50 States + 2026 IRS Tax Brackets</text><circle cx="64" cy="354" r="19" fill="#15803d"/><circle cx="64" cy="354" r="19" fill="none" stroke="#4ade80" stroke-width="1" opacity="0.45"/><path d="M53,354 L61,363 L75,345" stroke="#fff" stroke-width="2.8" fill="none" stroke-linecap="round" stroke-linejoin="round"/><text x="94" y="362" font-family="Arial,sans-serif" font-size="25" fill="#ffffff" font-weight="700">Federal - State - FICA Full Breakdown</text><circle cx="64" cy="415" r="19" fill="#15803d"/><circle cx="64" cy="415" r="19" fill="none" stroke="#4ade80" stroke-width="1" opacity="0.45"/><path d="M53,415 L61,424 L75,406" stroke="#fff" stroke-width="2.8" fill="none" stroke-linecap="round" stroke-linejoin="round"/><text x="94" y="423" font-family="Arial,sans-serif" font-size="25" fill="#ffffff" font-weight="700">Zero Data Stored - 100% Private</text><rect x="40" y="468" width="310" height="56" rx="5" fill="url(#bt)"/><rect x="40" y="468" width="310" height="56" rx="5" fill="none" stroke="#fffae0" stroke-width="0.7" opacity="0.25"/><text x="195" y="504" text-anchor="middle" font-family="Arial Black,sans-serif" font-size="16" fill="#0f0c29" font-weight="900" letter-spacing="1">-&gt; CALCULATE PAYCHECK FREE</text><rect x="364" y="468" width="146" height="56" rx="5" fill="url(#sh)"/><rect x="364" y="468" width="146" height="56" rx="5" fill="none" stroke="#F5C842" stroke-width="1.4" opacity="0.55"/><circle cx="392" cy="496" r="6" fill="none" stroke="#F5C842" stroke-width="1.8"/><circle cx="410" cy="485" r="6" fill="none" stroke="#F5C842" stroke-width="1.8"/><circle cx="410" cy="507" r="6" fill="none" stroke="#F5C842" stroke-width="1.8"/><line x1="398" y1="492" x2="405" y2="487" stroke="#F5C842" stroke-width="1.6"/><line x1="398" y1="500" x2="405" y2="505" stroke="#F5C842" stroke-width="1.6"/><text x="458" y="503" text-anchor="middle" font-family="Arial,sans-serif" font-size="16" fill="#F5C842" font-weight="700" letter-spacing="2">SHARE</text><ellipse cx="930" cy="288" rx="188" ry="188" fill="none" stroke="#F5C842" stroke-width="0.8" opacity="0.09"/><ellipse cx="930" cy="288" rx="228" ry="228" fill="none" stroke="#F5C842" stroke-width="0.4" opacity="0.05"/><text x="874" y="370" text-anchor="middle" font-family="Arial Black,sans-serif" font-size="210" font-weight="900" fill="#000" opacity="0.8">$0</text><text x="868" y="363" text-anchor="middle" font-family="Arial Black,sans-serif" font-size="210" font-weight="900" fill="url(#nm)">$0</text><text x="930" y="422" text-anchor="middle" font-family="Arial,sans-serif" font-size="16" fill="#9a7820" letter-spacing="5" font-weight="700">SIGNUP FEE</text><text x="930" y="446" text-anchor="middle" font-family="Arial,sans-serif" font-size="16" fill="#9a7820" letter-spacing="5" font-weight="700">ALWAYS FREE</text><text x="930" y="468" text-anchor="middle" font-family="Arial,sans-serif" font-size="12" fill="#F5C842" letter-spacing="3" opacity="0.42">ALL 50 STATES</text></svg>